HIERARCHY
ROOT Hips
{
	OFFSET 0.000000 0.000000 0.000000
	CHANNELS 6 Xposition Yposition Zposition Xrotation Yrotation Zrotation
	JOINT LeftUpLeg_virtual
	{
		OFFSET 0.000000 0.000000 0.000000
		CHANNELS 3 Xrotation Yrotation Zrotation
		JOINT LeftUpLeg
		{
			OFFSET 15.427100 -6.655098 0.678600
			CHANNELS 3 Xrotation Yrotation Zrotation
			JOINT LeftLeg
			{
				OFFSET 4.081073 -39.591068 13.024000
				CHANNELS 3 Xrotation Yrotation Zrotation
				JOINT LeftFoot
				{
					OFFSET -4.081074 -37.707932 -15.979700
					CHANNELS 3 Xrotation Yrotation Zrotation
					JOINT LeftToeBase
					{
						OFFSET 5.346399 -15.068900 20.645000
						CHANNELS 3 Xrotation Yrotation Zrotation
						JOINT LeftToe_End
						{
							OFFSET 2.754700 0.931300 11.300900
							CHANNELS 3 Xrotation Yrotation Zrotation
							End Site
							{
								OFFSET 0 0 0
							}
						}
					}
				}
			}
		}
	}
	JOINT RightUpLeg_virtual
	{
		OFFSET 0.000000 0.000000 0.000000
		CHANNELS 3 Xrotation Yrotation Zrotation
		JOINT RightUpLeg
		{
			OFFSET -15.569500 -6.655098 0.678600
			CHANNELS 3 Xrotation Yrotation Zrotation
			JOINT RightLeg
			{
				OFFSET -4.081825 -39.591045 13.023800
				CHANNELS 3 Xrotation Yrotation Zrotation
				JOINT RightFoot
				{
					OFFSET 4.081824 -37.707954 -15.979600
					CHANNELS 3 Xrotation Yrotation Zrotation
					JOINT RightToeBase
					{
						OFFSET -5.346400 -15.068900 20.645000
						CHANNELS 3 Xrotation Yrotation Zrotation
						JOINT RightToe_End
						{
							OFFSET -2.754700 0.931300 11.300900
							CHANNELS 3 Xrotation Yrotation Zrotation
							End Site
							{
								OFFSET 0 0 0
							}
						}
					}
				}
			}
		}
	}
	JOINT Spine_virtual
	{
		OFFSET 0.000000 0.000000 0.000000
		CHANNELS 3 Xrotation Yrotation Zrotation
		JOINT Spine
		{
			OFFSET -0.279200 12.230698 -2.892100
			CHANNELS 3 Xrotation Yrotation Zrotation
			JOINT Spine1
			{
				OFFSET -0.232667 10.192268 -1.242267
				CHANNELS 3 Xrotation Yrotation Zrotation
				JOINT Spine1_split
				{
					OFFSET -0.232667 10.192268 -1.242267
					CHANNELS 3 Xrotation Yrotation Zrotation
					JOINT Spine2
					{
						OFFSET -0.232667 10.192268 -1.242267
						CHANNELS 3 Xrotation Yrotation Zrotation
						JOINT Neck_virtual
						{
							OFFSET 0.000000 0.000000 0.000000
							CHANNELS 3 Xrotation Yrotation Zrotation
							JOINT Neck
							{
								OFFSET -0.418800 17.814194 8.416900
								CHANNELS 3 Xrotation Yrotation Zrotation
								JOINT Head
								{
									OFFSET 0.000000 7.031097 3.806800
									CHANNELS 3 Xrotation Yrotation Zrotation
									JOINT HeadTop_End
									{
										OFFSET 0.000000 24.646606 12.978600
										CHANNELS 3 Xrotation Yrotation Zrotation
										End Site
										{
											OFFSET 0 0 0
										}
									}
								}
							}
						}
						JOINT LeftShoulder_virtual
						{
							OFFSET 0.000000 0.000000 0.000000
							CHANNELS 3 Xrotation Yrotation Zrotation
							JOINT LeftShoulder
							{
								OFFSET 8.476499 7.247704 -3.868750
								CHANNELS 3 Xrotation Yrotation Zrotation
								JOINT LeftShoulder_split
								{
									OFFSET 8.476499 7.247704 -3.868750
									CHANNELS 3 Xrotation Yrotation Zrotation
									JOINT LeftArm
									{
										OFFSET 9.308998 -2.777710 0.208600
										CHANNELS 3 Xrotation Yrotation Zrotation
										JOINT LeftForeArm
										{
											OFFSET 29.972298 0.000000 0.000000
											CHANNELS 3 Xrotation Yrotation Zrotation
											JOINT LeftHand
											{
												OFFSET 26.026505 0.000000 0.000000
												CHANNELS 3 Xrotation Yrotation Zrotation
												End Site
												{
													OFFSET 0 0 0
												}
											}
										}
									}
								}
							}
						}
						JOINT RightShoulder_virtual
						{
							OFFSET 0.000000 0.000000 0.000000
							CHANNELS 3 Xrotation Yrotation Zrotation
							JOINT RightShoulder
							{
								OFFSET -7.570500 7.247704 -3.868750
								CHANNELS 3 Xrotation Yrotation Zrotation
								JOINT RightShoulder_split
								{
									OFFSET -7.570500 7.247704 -3.868750
									CHANNELS 3 Xrotation Yrotation Zrotation
									JOINT RightArm
									{
										OFFSET -9.308998 -2.777710 0.208500
										CHANNELS 3 Xrotation Yrotation Zrotation
										JOINT RightForeArm
										{
											OFFSET -29.972300 0.000000 0.000000
											CHANNELS 3 Xrotation Yrotation Zrotation
											JOINT RightHand
											{
												OFFSET -26.026505 0.000000 0.000000
												CHANNELS 3 Xrotation Yrotation Zrotation
												End Site
												{
													OFFSET 0 0 0
												}
											}
										}
									}
								}
							}
						}
					}
				}
			}
		}
	}
}
MOTION
Frames: 10
Frame Time: 0.03333333
-0.166277 69.532753 -11.222084 0.000000 0.000000 0.000000 22.023475 -33.416099 8.537552 -79.396694 0.584330 6.947282 56.495503 -2.480584 9.925831 10.997293 -4.296674 -28.892182 -1.076688 0.478172 -3.572165 0.000000 0.000000 0.000000 22.974718 -32.175252 7.692418 -30.142045 -16.525595 -15.370613 50.107203 13.217559 -2.842939 -38.484066 -20.266447 14.455546 1.368221 8.929116 0.850786 0.000000 0.000000 0.000000 28.026903 -26.870466 5.318157 -1.925085 0.054833 -0.612027 11.643461 1.635525 1.367575 0.104458 -0.730486 0.369769 0.000000 0.000000 0.000000 13.176237 5.631824 1.876739 -9.444926 30.876789 16.529732 -7.027681 -50.336302 -46.917748 0.000000 0.000000 0.000000 15.614764 1.240356 1.320083 -1.007218 -11.034239 -9.553409 -18.838126 5.727560 0.468508 -52.984677 -39.404751 -42.728345 106.423267 -79.488464 104.290275 0.000000 0.000000 0.000000 13.243132 2.778699 0.233524 -18.259896 -5.199194 -2.288089 -41.114365 -14.031126 3.123630 -73.534698 64.549748 83.815765 -33.299184 49.000201 68.448946 0.000000 0.000000 0.000000 
-0.159490 70.013748 -16.053894 0.000000 0.000000 0.000000 21.570455 -30.792098 7.272941 -77.666313 1.754917 6.972675 60.763391 -4.159918 10.602731 9.660742 -5.708896 -32.972830 -4.084862 -0.092235 -1.418961 0.000000 0.000000 0.000000 20.974461 -34.478453 7.076471 -31.693348 -18.413613 -14.649827 51.042297 13.960397 -3.082013 -39.757889 -19.244902 13.630822 6.344583 9.522858 -0.668551 0.000000 0.000000 0.000000 29.006731 -25.580148 5.649088 -1.945482 0.056604 -0.339147 11.492125 1.554600 1.136737 0.136603 -1.027053 0.388808 0.000000 0.000000 0.000000 12.961733 5.535148 1.842445 -9.306226 31.264539 16.423024 -6.425798 -50.127376 -46.065453 0.000000 0.000000 0.000000 15.531278 1.086015 1.161217 -1.070935 -11.083190 -9.587305 -18.733175 5.344953 0.473661 -52.560242 -39.949582 -42.414730 104.251855 -79.648489 101.833210 0.000000 0.000000 0.000000 13.223680 2.733710 0.336060 -18.311930 -5.273019 -2.350996 -41.758981 -14.624413 3.478561 -73.138963 65.180857 83.960469 -31.864222 48.355000 67.225440 0.000000 0.000000 0.000000 
-0.755956 70.926567 -22.391815 0.000000 0.000000 0.000000 21.675300 -28.928935 6.654395 -74.313114 3.367187 5.930332 63.987377 -5.575479 10.191473 6.166842 -5.162465 -33.362394 -6.886952 -0.603776 0.156964 0.000000 0.000000 0.000000 19.437940 -36.662898 6.887901 -34.884751 -19.974683 -14.741753 53.447975 16.637175 -3.528763 -36.280309 -17.836750 18.820685 3.908695 10.194915 -4.147215 0.000000 0.000000 0.000000 29.303933 -23.900297 5.600850 -1.444267 0.156792 -0.194097 11.334901 1.510895 0.813242 0.130968 -1.182899 0.344390 0.000000 0.000000 0.000000 12.631166 5.366741 1.741677 -8.877639 31.440542 16.412815 -6.409935 -50.691383 -44.605585 0.000000 0.000000 0.000000 15.285779 0.960315 1.123821 -1.081517 -10.890127 -9.684312 -18.351914 4.638431 0.835370 -52.957356 -40.473225 -42.160815 103.528804 -79.457025 100.430944 0.000000 0.000000 0.000000 13.131641 2.602567 0.326404 -18.396638 -4.756039 -2.285072 -42.246281 -15.590778 3.595070 -72.950935 65.733105 84.531596 -30.462603 48.027889 65.964444 0.000000 0.000000 0.000000 
-1.819068 71.847595 -29.193123 0.000000 0.000000 0.000000 22.171527 -28.858003 6.788577 -69.825174 4.100709 4.264027 64.939239 -6.215497 8.384587 0.929184 -2.440617 -28.980103 -6.603563 -0.732273 -0.284508 0.000000 0.000000 0.000000 18.767458 -37.008376 6.861740 -37.475312 -20.543911 -15.181443 56.524798 19.890969 -4.278601 -31.734544 -16.370901 26.039478 -1.311255 11.081059 -8.286313 0.000000 0.000000 0.000000 29.086005 -22.543965 5.183899 -0.445052 0.299507 -0.276790 11.174767 1.503499 0.528217 0.091828 -1.086688 0.291776 0.000000 0.000000 0.000000 12.223535 5.190237 1.607855 -8.306689 31.442940 16.576630 -7.128425 -52.003718 -42.926731 0.000000 0.000000 0.000000 14.973685 0.852752 1.238062 -1.019539 -10.524352 -9.823104 -17.748788 3.854532 1.385874 -54.126387 -41.050663 -41.926143 104.390016 -79.059289 100.342391 0.000000 0.000000 0.000000 12.937370 2.420963 0.215595 -18.512668 -3.676281 -2.227613 -42.340787 -16.463573 3.483989 -73.072997 66.044610 85.264940 -29.683032 48.308449 65.272798 0.000000 0.000000 0.000000 
-3.173977 72.194977 -36.151833 0.000000 0.000000 0.000000 22.623385 -30.375883 7.285332 -65.319333 3.057168 3.098449 63.813153 -6.161211 5.457746 -4.998451 1.187142 -21.118660 -2.988059 -0.459931 -3.023922 0.000000 0.000000 0.000000 18.896224 -35.399245 6.670732 -36.851319 -20.162403 -15.013674 58.912636 21.369666 -4.821449 -29.778679 -16.876480 28.896085 -1.645341 11.403825 -11.874736 0.000000 0.000000 0.000000 28.340198 -22.091969 4.439220 0.857959 0.497592 -0.494194 11.015799 1.495814 0.393104 0.081827 -0.868686 0.245485 0.000000 0.000000 0.000000 11.831189 5.035290 1.494315 -7.633925 31.434214 16.901723 -8.854106 -53.729895 -41.624474 0.000000 0.000000 0.000000 14.739446 0.748656 1.458938 -0.863360 -10.045926 -9.967308 -17.374647 3.340678 1.817000 -55.809927 -41.899980 -41.761266 105.695347 -78.654068 100.552133 0.000000 0.000000 0.000000 12.685733 2.212730 0.041811 -18.624794 -2.249821 -2.190187 -41.947846 -17.375216 3.392377 -73.086050 66.204416 85.733484 -29.863636 49.282550 65.525577 0.000000 0.000000 0.000000 
-4.368696 71.656540 -42.673302 0.000000 0.000000 0.000000 22.513384 -32.249845 7.476420 -62.466786 -0.093151 3.403531 61.713812 -6.138307 2.263782 -9.337491 3.928172 -12.974853 0.935260 -0.063967 -6.374524 0.000000 0.000000 0.000000 19.394230 -33.032315 6.202464 -32.864435 -19.136313 -14.666860 59.466229 20.342325 -4.468978 -30.514437 -20.692360 26.252650 4.086171 10.527670 -13.904643 0.000000 0.000000 0.000000 27.259268 -22.466606 3.534681 2.187872 0.737295 -0.746040 10.868673 1.452516 0.432699 0.107021 -0.594149 0.215386 0.000000 0.000000 0.000000 11.501116 4.930752 1.440610 -6.855229 31.574960 17.306497 -11.617280 -55.631218 -41.146279 0.000000 0.000000 0.000000 14.659888 0.617885 1.711332 -0.620388 -9.582445 -10.052440 -17.510503 3.015563 1.923703 -57.441467 -43.143658 -41.595862 105.295344 -78.469352 99.074988 0.000000 0.000000 0.000000 12.389554 2.010204 -0.120530 -18.675916 -0.688622 -2.161803 -41.429817 -18.422885 3.452921 -72.413433 66.224360 85.332169 -30.876953 50.661036 66.670358 0.000000 0.000000 0.000000 
-4.958168 70.246567 -48.744698 0.000000 0.000000 0.000000 21.723087 -33.299665 7.029907 -62.404447 -4.341637 5.592629 59.823059 -6.713341 -0.838753 -10.250006 5.160049 -7.322688 2.910689 0.300763 -9.282966 0.000000 0.000000 0.000000 19.751505 -31.643194 5.662705 -27.071921 -17.647392 -15.150053 57.391969 17.843003 -3.589784 -30.976349 -26.980398 22.446995 8.785736 9.448846 -13.733164 0.000000 0.000000 0.000000 26.242034 -23.654980 2.843654 3.284231 1.097206 -1.048358 10.740203 1.455806 0.611252 0.123738 -0.303734 0.261214 0.000000 0.000000 0.000000 11.283005 4.912035 1.485816 -5.850541 32.047050 17.692587 -15.355696 -57.571159 -41.752291 0.000000 0.000000 0.000000 14.789487 0.485528 1.941600 -0.319844 -9.098083 -10.169101 -18.067302 3.045570 1.728150 -58.757822 -44.841107 -41.621834 101.523099 -78.614535 94.387900 0.000000 0.000000 0.000000 12.112395 1.846721 -0.230406 -18.627833 0.917924 -2.068755 -41.129647 -19.405894 3.760694 -70.795785 66.160860 83.761554 -32.433549 52.083597 68.493479 0.000000 0.000000 0.000000 
-4.849292 68.145012 -53.994659 0.000000 0.000000 0.000000 20.647404 -33.382249 6.441638 -65.514990 -8.908236 8.870684 59.256966 -8.430947 -3.128901 -6.859217 5.065057 -6.509788 1.570546 0.814902 -10.700420 0.000000 0.000000 0.000000 19.490631 -32.356635 5.469537 -20.602507 -15.859016 -16.982075 52.589687 15.386032 -3.258423 -28.003533 -34.582597 22.758670 8.318878 8.964997 -12.068394 0.000000 0.000000 0.000000 25.399247 -25.401573 2.831883 3.931299 1.554907 -1.597869 10.538074 1.541018 0.867384 0.146428 -0.225806 0.290630 0.000000 0.000000 0.000000 11.123422 5.013127 1.613051 -4.576484 32.844764 17.982976 -20.473936 -59.698285 -43.966734 0.000000 0.000000 0.000000 14.999316 0.431037 2.111548 -0.007992 -8.620150 -10.368629 -18.978526 3.305891 1.541381 -59.580027 -46.796778 -41.844932 94.026010 -78.931510 86.239703 0.000000 0.000000 0.000000 11.906336 1.797983 -0.253399 -18.505207 2.418706 -1.714472 -41.029015 -20.462890 3.964222 -68.451377 65.999285 81.387141 -34.105727 53.200699 70.601589 0.000000 0.000000 0.000000 
-4.397847 65.886314 -58.599648 0.000000 0.000000 0.000000 19.749617 -33.270859 6.221441 -70.435697 -13.382488 11.788652 60.033961 -10.814145 -3.985911 -0.621273 3.725781 -9.566082 -1.947794 1.375351 -10.136674 0.000000 0.000000 0.000000 19.263428 -34.981114 6.162637 -14.381578 -14.242853 -19.989267 45.524601 14.060943 -3.899953 -21.378765 -41.324871 29.155397 5.477317 8.821888 -10.024010 0.000000 0.000000 0.000000 24.936930 -27.485055 3.766837 3.988610 2.035870 -2.551265 10.216469 1.783092 1.087544 0.183657 -0.352469 0.284456 0.000000 0.000000 0.000000 10.903617 5.292831 1.735900 -3.159920 33.874057 18.151067 -27.110877 -62.095941 -48.089538 0.000000 0.000000 0.000000 15.183859 0.541031 2.194958 0.274085 -8.095604 -10.778874 -19.946140 3.424404 1.612728 -59.670083 -48.593955 -42.055131 85.217811 -79.079479 77.082312 0.000000 0.000000 0.000000 11.789520 1.980742 -0.191098 -18.359562 3.739378 -1.087242 -40.907017 -21.344724 3.821090 -65.611576 65.675622 78.465377 -35.795068 54.025427 72.841884 0.000000 0.000000 0.000000 
-3.894234 63.999931 -63.059708 0.000000 0.000000 0.000000 19.270858 -33.679318 6.696359 -74.920099 -16.898911 13.981717 61.181447 -12.808627 -3.541756 5.957858 1.533795 -13.710364 -5.317230 1.577133 -8.040625 0.000000 0.000000 0.000000 19.353573 -38.801417 7.748403 -9.343369 -13.069352 -23.618067 38.130101 14.131660 -5.140941 -14.374517 -45.354929 38.588165 4.274420 8.732486 -8.310280 0.000000 0.000000 0.000000 24.799527 -29.855252 5.485249 3.591769 2.454459 -3.803592 9.795283 2.218800 1.215574 0.188175 -0.554721 0.248709 0.000000 0.000000 0.000000 10.556760 5.771022 1.777263 -1.846667 34.903216 18.212501 -35.411905 -64.683763 -54.438718 0.000000 0.000000 0.000000 15.321748 0.884443 2.194669 0.517087 -7.406857 -11.412582 -20.838195 3.229097 1.846225 -59.059888 -49.904743 -42.215265 79.986781 -79.082758 71.768479 0.000000 0.000000 0.000000 11.754417 2.431836 -0.081738 -18.256607 4.892035 -0.295560 -40.803215 -22.051843 3.454229 -62.551719 65.202625 75.466262 -37.721482 54.821120 75.322923 0.000000 0.000000 0.000000 
